<svg width="26" height="26" viewBox="0 0 26 26" fill="none" xmlns="http://www.w3.org/2000/svg">
<rect x="1.25" y="1.25" width="23.5" height="23.5" rx="6.75" stroke="#F37A92" stroke-width="2.5"/>
<path d="M6.99824 12.7736C6.4505 12.8443 5.94162 12.4563 5.94964 11.904C5.9592 11.2454 6.06173 10.5896 6.25554 9.95654C6.54723 9.00377 7.03896 8.12426 7.69786 7.3768C8.35675 6.62934 9.16763 6.03116 10.0763 5.62225C10.9849 5.21335 11.9704 5.00315 12.9668 5.0057C13.9632 5.00825 14.9476 5.2235 15.8542 5.63705C16.7607 6.0506 17.5685 6.65292 18.2236 7.40374C18.8786 8.15457 19.3659 9.03659 19.6527 9.99084C19.8432 10.6249 19.9424 11.2812 19.9486 11.9399C19.9538 12.4921 19.4429 12.8775 18.8955 12.8041L18.7514 12.7847C18.204 12.7112 17.8307 12.2047 17.7907 11.6539C17.765 11.3004 17.7006 10.9497 17.598 10.6084C17.3991 9.94658 17.0612 9.33489 16.6069 8.81419C16.1527 8.29348 15.5924 7.87577 14.9637 7.58896C14.335 7.30216 13.6524 7.15289 12.9613 7.15112C12.2703 7.14935 11.5869 7.29513 10.9567 7.57871C10.3266 7.86228 9.7642 8.27713 9.30725 8.7955C8.85029 9.31387 8.50927 9.92383 8.30699 10.5846C8.20264 10.9254 8.13645 11.2757 8.10896 11.6291C8.06611 12.1797 7.69022 12.6843 7.14248 12.755L6.99824 12.7736Z" fill="#F37A92"/>
<circle cx="13" cy="11.5" r="1.5" fill="#F37A92"/>
<path fill-rule="evenodd" clip-rule="evenodd" d="M15.4277 9.26468C15.798 9.67445 15.766 10.3068 15.3562 10.6771L14.2433 11.6827L12.9024 10.1988L14.0153 9.19316C14.4251 8.82289 15.0575 8.85491 15.4277 9.26468Z" fill="#F37A92"/>
</svg>
